# AST/ASF file generated using VICON BodyLanguage
# -----------------------------------------------
:version 1.10
:name VICON
:units
  mass 1.0
  length 0.45
  angle deg
:documentation
   .ast/.asf automatically generated from VICON data using
   VICON BodyBuilder and BodyLanguage model FoxedUp or BRILLIANT.MOD
:root
   order TX TY TZ RX RY RZ
   axis XYZ
   position 0 0 0  
   orientation 0 0 0 
:bonedata
  begin
     id 1 
     name lhipjoint
     direction 0.710188 -0.616876 0.339259 
     length 2.5669 
     axis 0 0 0  XYZ
  end
  begin
     id 2 
     name lfemur
     direction 0.34202 -0.939693 0  
     length 7.12796  
     axis 0 0 20  XYZ
    dof rx ry rz
    limits (-160.0 20.0)
           (-70.0 70.0)
           (-60.0 70.0)
  end
  begin
     id 3 
     name ltibia
     direction 0.34202 -0.939693 0   
     length 7.58108   
     axis 0 0 20   XYZ
    dof rx
    limits (-10.0 170.0)
  end
  begin
     id 4 
     name lfoot
     direction 0.0669471 -0.183936 0.980656   
     length 2.17365   
     axis -90 7.62852e-016 20   XYZ
    dof rx rz
    limits (-45.0 90.0)
           (-70.0 20.0)
  end
  begin
     id 5 
     name ltoes
     direction 1.53508e-011 -4.21705e-011 1   
     length 1.09427   
     axis -90 7.62852e-016 20   XYZ
    dof rx
    limits (-90.0 20.0)
  end
  begin
     id 6 
     name rhipjoint
     direction -0.700191 -0.625589 0.34405   
     length 2.53115  
     axis 0 0 0  XYZ 
  end
  begin
     id 7 
     name rfemur
     direction -0.34202 -0.939693 0   
     length 7.33006   
     axis 0 0 -20   XYZ
    dof rx ry rz
    limits (-160.0 20.0)
           (-70.0 70.0)
           (-70.0 60.0)
  end
  begin
     id 8 
     name rtibia
     direction -0.34202 -0.939693 0   
     length 7.64926   
     axis 0 0 -20   XYZ
    dof rx
    limits (-10.0 170.0)
 end
 begin
     id 9 
     name rfoot
     direction -0.0688927 -0.189281 0.979503   
     length 2.20493  
     axis -90 -7.62852e-016 -20   XYZ
    dof rx rz
    limits (-45.0 90.0)
           (-20.0 70.0)
  end
  begin
     id 10 
     name rtoes
     direction -1.53567e-011 -4.21933e-011 1   
     length 1.10919   
     axis -90 -7.62852e-016 -20   XYZ
    dof rx
    limits (-90.0 20.0)
  end
  begin
     id 11 
     name lowerback
     direction -0.0167868 0.989873 -0.140959   
     length 2.14596   
     axis 0 0 0   XYZ
    dof rx ry rz
    limits (-20.0 45.0)
           (-30.0 30.0)
           (-30.0 30.0)
  end
  begin
     id 12 
     name upperback
     direction 0.0129109 0.998033 0.0613525   
     length 2.10457   
     axis 0 0 0   XYZ
    dof rx ry rz
    limits (-20.0 45.0)
           (-30.0 30.0)
           (-30.0 30.0)
  end
  begin
     id 13 
     name thorax
     direction 0.0177047 0.991119 0.131797   
     length 2.17652   
     axis 0 0 0   XYZ
    dof rx ry rz
    limits (-20.0 45.0)
           (-30.0 30.0)
           (-30.0 30.0)
  end
  begin
     id 14 
     name lowerneck
     direction -0.0336893 0.997548 0.0613464   
     length 1.8912   
     axis 0 0 0   XYZ
    dof rx ry rz
    limits (-20.0 45.0)
           (-30.0 30.0)
           (-30.0 30.0)
  end
  begin
     id 15 
     name upperneck
     direction 0.0435909 0.997179 -0.0611028   
     length 1.8829   
     axis 0 0 0   XYZ
    dof rx ry rz
    limits (-20.0 45.0)
           (-30.0 30.0)
           (-30.0 30.0)
  end
  begin
     id 16
     name head
     direction 0.0175076 0.999444 -0.0283782  
     length 1.93197  
     axis 0 0 0   XYZ
    dof rx ry rz
    limits (-20.0 45.0)
           (-30.0 30.0)
           (-30.0 30.0)
  end
  begin
     id 17 
     name lclavicle
     direction 0.919164 0.389875 0.0559876  
     length 3.60004  
     axis 0 0 0   XYZ
    dof ry rz
    limits (-20.0 10.0)
           (0.0 20.0)
  end
  begin
     id 18 
     name lhumerus
     direction 1 -4.48958e-011 6.89191e-027   
     length 5.43301   
     axis 180 -30 -90   XYZ
    dof rx ry rz
    limits (-60.0 90.0)
           (-90.0 90.0)
           (-90.0 90.0)
  end
  begin
     id 19
     name lradius
     direction 1 -4.4897e-011 3.24727e-027   
     length 3.15936   
     axis 180 -30 -90   XYZ
    dof rx
    limits (-10.0 170.0)
  end
  begin
     id 20
     name lwrist
     direction 1 -4.4897e-011 9.00228e-027   
     length 1.57968   
     axis -6.29373e-015 90 90   XYZ
    dof ry
    limits (-180.0 0.0)
 end
  begin
     id 21 
     name lhand
     direction 1 -4.48968e-011 1.80042e-026   
     length 0.712827   
     axis -1.14882e-014 90 90   XYZ
    dof rx rz
    limits (-90.0 90.0)
           (-45.0 45.0)
  end
  begin
     id 22 
     name lfingers
     direction 1 -4.49019e-011 3.60267e-026   
     length 0.574699   
     axis -2.29769e-014 90 90   XYZ
    dof rx
    limits (0.0 90.0)
  end
  begin
     id 23
     name lthumb
     direction 0.707107 -6.3498e-011 0.707107   
     length 0.825157   
     axis -90 45 5.37419e-014   XYZ
    dof rx rz
    limits (-45.0 45.0)
           (-45.0 45.0)
  end
  begin
     id 24 
     name rclavicle
     direction -0.890334 0.455305 -0.00132111   
     length 3.51494  
     axis 0 0 0   XYZ 
    dof ry rz
    limits (-10.0 20.0)
           (-20.0 0.0)
  end
  begin
     id 25 
     name rhumerus
     direction -1 -4.48967e-011 5.07175e-028  
     length 5.34194   
     axis 180 30 90   XYZ
    dof rx ry rz
    limits (-90.0 60.0)
           (-90.0 90.0)
           (-90.0 90.0)
  end
  begin
     id 26 
     name rradius
     direction -1 -4.48955e-011 3.30467e-027   
     length 3.19351   
     axis 180 30 90   XYZ
    dof rx
    limits (-10.0 170.0)
  end
  begin
     id 27 
     name rwrist
     direction -1 -4.48968e-011 9.00208e-027   
     length 1.59676   
     axis -6.29373e-015 -90 -90   XYZ
    dof ry
    limits (-180.0 0.0)
  end
  begin
     id 28
     name rhand
     direction -1 -4.49e-011 1.80099e-026   
     length 0.743862   
     axis -1.14882e-014 -90 -90   XYZ
    dof rx rz
    limits (-90.0 90.0)
           (-45.0 45.0)
  end
  begin
     id 29
     name rfingers
     direction -1 -4.49009e-011 3.6023e-026   
     length 0.599721   
     axis -2.29769e-014 -90 -90   XYZ
    dof rx
    limits (0.0 90.0)
  end
  begin
     id 30
     name rthumb
     direction -0.707107 -6.35025e-011 0.707107   
     length 0.861083   
     axis -90 -45 -5.37419e-014   XYZ
    dof rx rz
    limits (-45.0 45.0)
           (-45.0 45.0)
  end
:hierarchy
  begin
    root lhipjoint rhipjoint lowerback
    lhipjoint lfemur
    lfemur ltibia
    ltibia lfoot
    lfoot ltoes
    rhipjoint rfemur
    rfemur rtibia
    rtibia rfoot
    rfoot rtoes
    lowerback upperback
    upperback thorax
    thorax lowerneck lclavicle rclavicle
    lowerneck upperneck
    upperneck head
    lclavicle lhumerus
    lhumerus lradius
    lradius lwrist
    lwrist lhand lthumb
    lhand lfingers
    rclavicle rhumerus
    rhumerus rradius
    rradius rwrist
    rwrist rhand rthumb
    rhand rfingers
  end

#!OML:ASF H:\Martial Arts Walks\Project 1\Capture day 1\Session 1\male.ASF
:FULLY-SPECIFIED
:DEGREES
1
root -2.48457 16.1924 -39.1096 8.15728 -18.6071 -9.48946
lowerback 7.77875 2.40558 3.01402
upperback -1.52962 3.69396 3.24816
thorax -5.99402 1.77134 1.22863
lowerneck 3.19225 -11.5867 -10.9393
upperneck 7.80885 -16.407 10.059
head 3.54612 -8.25085 4.19085
rclavicle 2.04841e-014 3.89121e-014
rhumerus -18.1297 27.198 -89.9742
rradius 42.8637
rwrist 3.27543
rhand -16.9984 -35.4013
rfingers 7.12502
rthumb 9.23687 -65.179
lclavicle 2.04841e-014 3.89121e-014
lhumerus -27.2373 5.02482 82.6123
lradius 22.6594
lwrist -22.7043
lhand -27.2157 19.1107
lfingers 7.12502
lthumb -0.628393 49.0895
rfemur -8.88287 0.490351 26.1346
rtibia 40.6667
rfoot -24.4584 -22.3942
rtoes -19.9314
lfemur -42.8464 0.678535 -0.336415
ltibia 44.3948
lfoot -6.16264 -0.990868
ltoes -5.8083
2
root -2.48434 16.1908 -39.1071 8.09318 -18.5681 -9.46274
lowerback 7.79648 2.41333 2.99023
upperback -1.5599 3.70305 3.22077
thorax -6.03569 1.77558 1.21081
lowerneck 3.16848 -11.4075 -11.5952
upperneck 7.95714 -16.2589 10.8663
head 3.69692 -8.17603 4.52701
rclavicle 2.68701e-014 -2.23633e-015
rhumerus -18.614 26.8096 -90.0907
rradius 42.5371
rwrist 2.97119
rhand -16.422 -35.6246
rfingers 7.12502
rthumb 9.79305 -65.3769
lclavicle 2.68701e-014 -2.23633e-015
lhumerus -27.5525 5.4256 82.3562
lradius 22.34
lwrist -23.1282
lhand -27.1074 19.1151
lfingers 7.12502
lthumb -0.523789 49.0942
rfemur -8.8109 0.480718 26.1158
rtibia 40.6659
rfoot -24.4974 -22.4138
rtoes -19.7912
lfemur -42.8121 0.689211 -0.38548
ltibia 44.401
lfoot -6.13789 -1.08492
ltoes -5.79834
3
root -2.48425 16.1894 -39.1047 8.03861 -18.504 -9.43478
lowerback 7.78805 2.41052 2.96546
upperback -1.57923 3.69634 3.20039
thorax -6.05135 1.77261 1.20418
lowerneck 3.12154 -11.4322 -11.6037
upperneck 7.98863 -16.2903 10.8576
head 3.71768 -8.19025 4.5192
rclavicle -3.6508e-014 -1.89839e-014
rhumerus -19.1058 26.4865 -90.2133
rradius 41.9384
rwrist 3.41629
rhand -17.0089 -35.0495
rfingers 7.12502
rthumb 9.22678 -64.8277
lclavicle -3.6508e-014 -1.89839e-014
lhumerus -27.816 5.85722 82.0973
lradius 21.9564
lwrist -23.5942
lhand -27.0296 19.1372
lfingers 7.12502
lthumb -0.448695 49.1165
rfemur -8.74709 0.429483 26.0942
rtibia 40.6704
rfoot -24.5204 -22.4377
rtoes -19.7515
lfemur -42.8038 0.691452 -0.438618
ltibia 44.4102
lfoot -6.12141 -1.15387
ltoes -5.87707
4
root -2.48396 16.1876 -39.1035 7.98921 -18.4503 -9.40017
lowerback 7.7732 2.40647 2.93373
upperback -1.59594 3.68648 3.17425
thorax -6.0606 1.76833 1.19614
lowerneck 3.10295 -11.446 -11.6288
upperneck 8.01195 -16.3121 10.881
head 3.7342 -8.20049 4.52609
rclavicle -1.26663e-014 -5.11871e-015
rhumerus -19.5768 26.1285 -90.3265
rradius 41.4631
rwrist 3.43373
rhand -16.9116 -35.191
rfingers 7.12502
rthumb 9.32062 -64.965
lclavicle -1.26663e-014 -5.11871e-015
lhumerus -28.1061 6.24559 81.8442
lradius 21.6797
lwrist -23.9677
lhand -27.0124 19.1295
lfingers 7.12502
lthumb -0.432096 49.1088
rfemur -8.70164 0.376434 26.0629
rtibia 40.6769
rfoot -24.536 -22.4623
rtoes -19.8907
lfemur -42.7874 0.693321 -0.490825
ltibia 44.4183
lfoot -6.12128 -1.21381
ltoes -5.85133
5
root -2.48425 16.1854 -39.1026 7.93492 -18.402 -9.39848
lowerback 7.75652 2.39816 2.91677
upperback -1.6084 3.67343 3.17234
thorax -6.0651 1.76246 1.20573
lowerneck 3.11612 -11.4524 -11.6577
upperneck 8.00543 -16.3215 10.8734
head 3.73295 -8.20664 4.52811
rclavicle -3.06377e-014 -4.96962e-015
rhumerus -20.0689 25.7766 -90.4328
rradius 40.7038
rwrist 4.1259
rhand -17.4529 -34.1735
rfingers 7.12502
rthumb 8.79831 -63.9701
lclavicle -3.06377e-014 -4.96962e-015
lhumerus -28.4547 6.54944 81.6251
lradius 21.4649
lwrist -24.2904
lhand -26.9859 18.9062
lfingers 7.12502
lthumb -0.406456 48.8855
rfemur -8.63774 0.360004 26.072
rtibia 40.6777
rfoot -24.5531 -22.4957
rtoes -19.8636
lfemur -42.7623 0.711485 -0.507407
ltibia 44.4164
lfoot -6.12373 -1.32381
ltoes -5.76569
6
root -2.48402 16.1838 -39.102 7.88357 -18.3246 -9.36765
lowerback 7.74871 2.36386 2.87397
upperback -1.62273 3.62365 3.16956
thorax -6.07797 1.73932 1.23308
lowerneck 3.15011 -11.4375 -11.7148
upperneck 7.97009 -16.3052 10.9029
head 3.72197 -8.20097 4.5493
rclavicle -4.52856e-015 3.04141e-014
rhumerus -20.5188 25.3981 -90.5054
rradius 40.2493
rwrist 3.63904
rhand -16.9787 -34.8917
rfingers 7.12502
rthumb 9.25592 -64.6685
lclavicle -4.52856e-015 3.04141e-014
lhumerus -28.7912 6.91198 81.393
lradius 21.2759
lwrist -24.53
lhand -26.9296 18.9738
lfingers 7.12502
lthumb -0.352108 48.9533
rfemur -8.58897 0.321216 26.0533
rtibia 40.6823
rfoot -24.5857 -22.5159
rtoes -19.7798
lfemur -42.7724 0.703594 -0.557875
ltibia 44.4358
lfoot -6.08275 -1.39168
ltoes -5.64504
7
root -2.48886 16.1849 -39.0958 7.73563 -18.2719 -9.20675
lowerback 7.75178 2.38098 2.70997
upperback -1.61309 3.62684 3.10911
thorax -6.07523 1.74594 1.26093
lowerneck 3.1039 -11.5289 -11.5003
upperneck 8.00694 -16.4029 10.6649
head 3.71496 -8.24701 4.43684
rclavicle -3.91233e-014 -3.40916e-014
rhumerus -21.0667 24.7595 -90.5699
rradius 39.6653
rwrist 3.80582
rhand -16.9192 -35.0346
rfingers 7.12502
rthumb 9.31335 -64.8089
lclavicle -3.91233e-014 -3.40916e-014
lhumerus -29.1752 6.99019 81.2149
lradius 21.1506
lwrist -24.6838
lhand -27.1537 18.6756
lfingers 7.12502
lthumb -0.568564 48.6546
rfemur -8.43721 0.263933 25.9025
rtibia 40.6824
rfoot -24.6659 -22.5235
rtoes -19.6156
lfemur -42.6673 0.648988 -0.735774
ltibia 44.4497
lfoot -6.13038 -1.40005
ltoes -5.63157
8
root -2.48411 16.1782 -39.1006 7.78765 -18.1875 -9.42169
lowerback 7.77377 2.37311 2.96095
upperback -1.60517 3.64289 3.1331
thorax -6.06595 1.74505 1.14334
lowerneck 2.95988 -11.5126 -11.6817
upperneck 8.01808 -16.3957 10.928
head 3.77725 -8.23746 4.53087
rclavicle 4.70623e-014 -1.49089e-015
rhumerus -21.3152 24.3167 -90.5302
rradius 38.88
rwrist 3.84816
rhand -16.9069 -34.6498
rfingers 7.12502
rthumb 9.32519 -64.4236
lclavicle 4.70623e-014 -1.49089e-015
lhumerus -29.2575 7.42999 80.9734
lradius 20.8536
lwrist -25.1553
lhand -26.7545 18.8598
lfingers 7.12502
lthumb -0.182942 48.8394
rfemur -8.45469 0.195677 26.1215
rtibia 40.6849
rfoot -24.6188 -22.5442
rtoes -19.7136
lfemur -42.7698 0.728135 -0.539571
ltibia 44.503
lfoot -6.08983 -1.51655
ltoes -5.64725
9
root -2.4844 16.1755 -39.1001 7.7499 -18.1144 -9.43543
lowerback 7.77435 2.36834 2.97312
upperback -1.61501 3.63779 3.12453
thorax -6.07533 1.74181 1.12806
lowerneck 2.9108 -11.5055 -11.6787
upperneck 8.00989 -16.3908 11.026
head 3.78992 -8.23122 4.55697
rclavicle 4.18317e-014 1.09332e-014
rhumerus -21.7359 23.7719 -90.5309
rradius 38.0818
rwrist 4.07654
rhand -16.9455 -34.4243
rfingers 7.12502
rthumb 9.2879 -64.1997
lclavicle 4.18317e-014 1.09332e-014
lhumerus -29.5703 7.61625 80.7956
lradius 20.7787
lwrist -25.3184
lhand -26.6797 18.6885
lfingers 7.12502
lthumb -0.110722 48.6682
rfemur -8.40217 0.153008 26.1505
rtibia 40.689
rfoot -24.6843 -22.5341
rtoes -19.5537
lfemur -42.784 0.717282 -0.537806
ltibia 44.5412
lfoot -6.10756 -1.55689
ltoes -5.77265
10
root -2.48448 16.1724 -39.0991 7.70981 -18.0338 -9.455
lowerback 7.76383 2.3511 2.99435
upperback -1.63168 3.61692 3.12006
thorax -6.08531 1.73052 1.11438
lowerneck 2.87099 -11.5164 -11.6741
upperneck 8.08024 -16.4079 11.0229
head 3.81894 -8.23788 4.5496
rclavicle 3.1085e-014 2.77305e-014
rhumerus -22.1891 23.2348 -90.5436
rradius 37.3053
rwrist 4.27696
rhand -16.5137 -35.2864
rfingers 7.12502
rthumb 9.70458 -65.0429
lclavicle 3.1085e-014 2.77305e-014
lhumerus -29.8531 7.80006 80.6148
lradius 20.6355
lwrist -25.48
lhand -26.5254 18.6666
lfingers 7.12502
lthumb 0.0383155 48.6464
rfemur -8.34142 0.10587 26.1842
rtibia 40.6952
rfoot -24.7095 -22.5715
rtoes -19.5405
lfemur -42.8035 0.7107 -0.529795
ltibia 44.5998
lfoot -6.17285 -1.57489
ltoes -5.97032
11
root -2.48509 16.17 -39.0988 7.67211 -17.9798 -9.44826
lowerback 7.76983 2.33202 2.9495
upperback -1.65465 3.58891 3.12574
thorax -6.11604 1.71807 1.14822
lowerneck 2.96132 -11.5539 -11.7284
upperneck 8.04239 -16.458 10.9538
head 3.7976 -8.26901 4.53942
rclavicle 2.7687e-014 -8.15017e-015
rhumerus -22.6434 22.7393 -90.5341
rradius 36.5253
rwrist 4.42421
rhand -16.4668 -35.4946
rfingers 7.12502
rthumb 9.74978 -65.2489
lclavicle 2.7687e-014 -8.15017e-015
lhumerus -30.1586 7.96638 80.4608
lradius 20.5402
lwrist -25.555
lhand -26.4736 18.7164
lfingers 7.12502
lthumb 0.0883119 48.6961
rfemur -8.30178 0.0514063 26.182
rtibia 40.706
rfoot -24.7649 -22.5591
rtoes -19.4485
lfemur -42.8112 0.691105 -0.537413
ltibia 44.6277
lfoot -6.24175 -1.53796
ltoes -6.26499
